<svg xmlns="http://www.w3.org/2000/svg" viewBox="0 0 200 200" ><path d="M12,94 C8,42 54,8 108,12 C162,16 190,56 186,108 C182,160 140,192 88,188 C36,184 16,146 12,94 Z" fill="#f5f0f8"/><circle cx="152" cy="48" r="22" fill="#ece2f1"/><circle cx="34" cy="158" r="9" fill="#ece2f1"/><g transform="translate(100 104) rotate(0) scale(1.05)">
  <ellipse cx="-30" cy="-16" rx="30" ry="22" transform="rotate(-25 -30 -16)" fill="#7a4e93"/>
  <ellipse cx="30" cy="-16" rx="30" ry="22" transform="rotate(25 30 -16)" fill="#7a4e93"/>
  <ellipse cx="-22" cy="20" rx="20" ry="16" transform="rotate(20 -22 20)" fill="#d4674a"/>
  <ellipse cx="22" cy="20" rx="20" ry="16" transform="rotate(-20 22 20)" fill="#d4674a"/>
  <circle cx="-34" cy="-18" r="7" fill="#ece2f1" opacity=".9"/>
  <circle cx="34" cy="-18" r="7" fill="#ece2f1" opacity=".9"/>
  <circle cx="-24" cy="22" r="4" fill="#ece2f1" opacity=".8"/>
  <circle cx="24" cy="22" r="4" fill="#ece2f1" opacity=".8"/>
  <rect x="-4" y="-30" width="8" height="60" rx="4" fill="#4b2a5e"/>
  <circle cx="0" cy="-32" r="6" fill="#4b2a5e"/>
  <path d="M-3,-36 C-8,-46 -16,-48 -20,-50" stroke="#4b2a5e" stroke-width="2.5" fill="none" stroke-linecap="round"/>
  <path d="M3,-36 C8,-46 16,-48 20,-50" stroke="#4b2a5e" stroke-width="2.5" fill="none" stroke-linecap="round"/>
</g>
<circle cx="150" cy="48" r="3" fill="#d9a441"/>
<circle cx="42" cy="150" r="2.4" fill="#d9a441"/>
<circle cx="156" cy="152" r="2" fill="#b592c7"/></svg>
